<svg width="9" height="9" viewBox="0 0 9 9" fill="none" xmlns="http://www.w3.org/2000/svg">
<path d="M8.76562 7.57031C8.92188 7.74219 9 7.94531 9 8.17969C9 8.41406 8.92188 8.60938 8.76562 8.76562C8.60938 8.92188 8.41406 9 8.17969 9C7.94531 9 7.74219 8.92188 7.57031 8.76562L4.5 5.69531L1.42969 8.76562C1.25781 8.92188 1.0625 9 0.84375 9C0.625 9 0.429688 8.92188 0.257812 8.76562C0.0859375 8.60938 0 8.41406 0 8.17969C0 7.94531 0.0859375 7.74219 0.257812 7.57031L3.30469 4.5L0.257812 1.42969C0.0859375 1.25781 0 1.05469 0 0.820312C0 0.585938 0.0859375 0.390625 0.257812 0.234375C0.429688 0.078125 0.625 0 0.84375 0C1.0625 0 1.25781 0.078125 1.42969 0.234375L4.5 3.30469L7.57031 0.234375C7.74219 0.078125 7.94531 0 8.17969 0C8.41406 0 8.60938 0.078125 8.76562 0.234375C8.92188 0.390625 9 0.585938 9 0.820312C9 1.05469 8.92188 1.25781 8.76562 1.42969L5.69531 4.5L8.76562 7.57031Z" fill="white"/>
</svg>
